<svg width="101" height="37" viewBox="0 0 101 37" fill="none" xmlns="http://www.w3.org/2000/svg">
<path d="M13.1152 1.25C12.1819 1.25 11.2652 1.51666 10.3652 2.05C9.46523 2.58333 8.66523 3.51666 7.96523 4.85C7.26524 6.15 6.69857 7.91666 6.26523 10.15C5.8319 12.35 5.61523 15.1333 5.61523 18.5C5.61523 21.8667 5.8319 24.6667 6.26523 26.9C6.69857 29.1 7.2819 30.8667 8.01524 32.2C8.74857 33.5 9.59857 34.4167 10.5652 34.95C11.5319 35.4833 12.5486 35.75 13.6152 35.75C14.4819 35.75 15.3652 35.5167 16.2652 35.05C17.1652 34.5833 17.9819 33.9333 18.7152 33.1C19.4819 32.2667 20.1152 31.2833 20.6152 30.15C21.1486 29.0167 21.4819 27.8 21.6152 26.5H22.3652C22.2319 28 21.8986 29.3833 21.3652 30.65C20.8319 31.8833 20.1486 32.9667 19.3152 33.9C18.5152 34.8 17.5819 35.5 16.5152 36C15.4486 36.5 14.3152 36.75 13.1152 36.75C11.5486 36.75 10.0319 36.3833 8.56523 35.65C7.09857 34.8833 5.7819 33.75 4.61523 32.25C3.4819 30.7167 2.56523 28.8167 1.86523 26.55C1.19857 24.25 0.865235 21.5667 0.865235 18.5C0.865235 15.4333 1.19857 12.7667 1.86523 10.5C2.56523 8.2 3.46523 6.3 4.56523 4.8C5.69857 3.26667 6.96523 2.13333 8.36524 1.4C9.76523 0.633332 11.1819 0.249998 12.6152 0.249998C13.4152 0.249998 14.1319 0.383332 14.7652 0.649999C15.4319 0.916664 15.9986 1.21666 16.4652 1.55C16.9986 1.91667 17.4652 2.33333 17.8652 2.8C18.1319 2.3 18.4819 1.83333 18.9152 1.4C19.3819 0.933332 19.8652 0.633332 20.3652 0.499998H21.1152C21.0486 0.999998 20.9986 1.5 20.9652 2C20.9319 2.46667 20.8986 2.96667 20.8652 3.5C20.8652 4 20.8652 4.5 20.8652 5C20.8652 5.56667 20.8652 6.13333 20.8652 6.7C20.8986 7.23333 20.9319 7.73333 20.9652 8.2C20.9986 8.73333 21.0486 9.25 21.1152 9.75H20.3652C19.5986 6.98333 18.5652 4.88333 17.2652 3.45C15.9986 1.98333 14.6152 1.25 13.1152 1.25ZM47.627 26C47.627 29.7667 46.8436 32.5 45.277 34.2C43.7436 35.9 41.527 36.75 38.627 36.75C35.227 36.75 32.577 35.8167 30.677 33.95C28.8103 32.05 27.877 29.4 27.877 26V2.25L24.877 1.5V0.999998H35.127V1.5L32.127 2.25V26C32.127 29.3667 32.7936 31.8333 34.127 33.4C35.4603 34.9667 37.127 35.75 39.127 35.75C40.2603 35.75 41.277 35.5667 42.177 35.2C43.1103 34.8 43.8936 34.2 44.527 33.4C45.1936 32.6 45.7103 31.6 46.077 30.4C46.4436 29.1667 46.627 27.7 46.627 26V2.75L43.377 1.5V0.999998H50.877V1.5L47.627 2.75V26ZM61.3926 23.5V34.75L64.3926 35.5V36H54.1426V35.5L57.1426 34.75V2.25L54.1426 1.5V0.999998H63.1426C65.2092 0.999998 67.0426 1.28333 68.6426 1.85C70.2759 2.41667 71.6426 3.2 72.7426 4.2C73.8426 5.2 74.6759 6.38333 75.2426 7.75C75.8426 9.11667 76.1426 10.6167 76.1426 12.25C76.1426 13.8833 75.8426 15.3833 75.2426 16.75C74.6759 18.1167 73.8426 19.3 72.7426 20.3C71.6426 21.3 70.2759 22.0833 68.6426 22.65C67.0426 23.2167 65.2092 23.5 63.1426 23.5H61.3926ZM61.3926 22.5H63.1426C65.7759 22.5 67.8092 21.7 69.2426 20.1C70.6759 18.5 71.3926 15.8833 71.3926 12.25C71.3926 8.61666 70.6759 6 69.2426 4.4C67.8092 2.8 65.7759 2 63.1426 2H61.3926V22.5ZM85.6367 27.85V34.75L88.3867 35.5V36H78.6367V35.5L81.6367 34.75V2.25L78.6367 1.5V0.999998H85.6367V26.5L93.8867 14.75L90.6367 13.5V13H98.1367V13.5L94.8867 14.75L90.0367 21.65L97.8867 34.75L100.887 35.5V36H90.6367V35.5L93.3867 34.75L87.5867 25.1L85.6367 27.85Z" fill="black"/>
</svg>
