<svg width="35" height="35" viewBox="0 0 35 35" fill="none" xmlns="http://www.w3.org/2000/svg">
<path d="M9.47423 0H25.5258C30.75 0 35 4.25002 35 9.47416V25.526C35 30.7499 30.75 34.9999 25.5258 34.9999H9.47396C4.25009 34.9999 6.48499e-05 30.7499 6.48499e-05 25.526V9.47416C6.48499e-05 4.25002 4.25009 0 9.47423 0V0ZM2.05191 25.526C2.05191 29.6185 5.38149 32.9481 9.47423 32.9481H25.5258C29.6186 32.9481 32.9482 29.6185 32.9482 25.526V9.47416C32.9482 5.38142 29.6186 2.05185 25.5258 2.05185H9.47396C5.38149 2.05185 2.05191 5.38142 2.05191 9.47416V25.526Z" fill="#EE2211"/>
<path d="M17.5 7.92993C22.7771 7.92993 27.0701 12.2229 27.0701 17.5C27.0701 22.777 22.7771 27.07 17.5 27.07C12.223 27.07 7.93001 22.777 7.93001 17.5C7.93001 12.2229 12.223 7.92993 17.5 7.92993ZM17.5 25.0181C21.6454 25.0181 25.0182 21.6456 25.0182 17.5C25.0182 13.3546 21.6454 9.98178 17.5 9.98178C13.3544 9.98178 9.98186 13.3546 9.98186 17.5C9.98186 21.6456 13.3544 25.0181 17.5 25.0181Z" fill="#EE2211"/>
<path d="M7.70116 4.53125C9.26061 4.53125 10.529 5.7999 10.529 7.35908C10.529 8.91852 9.26061 10.1872 7.70116 10.1872C6.14172 10.1872 4.87306 8.91852 4.87306 7.35908C4.87306 5.79963 6.14172 4.53125 7.70116 4.53125ZM7.70116 8.13506C8.12894 8.13506 8.47715 7.78686 8.47715 7.35908C8.47715 6.93103 8.12894 6.5831 7.70116 6.5831C7.27311 6.5831 6.92491 6.93103 6.92491 7.35908C6.92491 7.78686 7.27311 8.13506 7.70116 8.13506Z" fill="#EE2211"/>
</svg>
